<svg width="100%" height="100%" id="svg" viewBox="0 0 1440 500" xmlns="http://www.w3.org/2000/svg"><path d="M 0,500 C 0,500 0,250 0,250 C 49.43262150220913,242.76251840942564 98.86524300441826,235.52503681885125 166,240 C 233.13475699558174,244.47496318114875 317.9716494845361,260.66237113402065 377,242 C 436.0283505154639,223.33762886597938 469.2481590574374,169.82547864506623 532,193 C 594.7518409425626,216.17452135493377 687.0357142857142,316.03571428571433 748,326 C 808.9642857142858,335.96428571428567 838.6089837997056,256.0316642120766 887,218 C 935.3910162002944,179.96833578792342 1002.5283505154639,183.83762886597938 1070,210 C 1137.471649484536,236.16237113402062 1205.277614138439,284.6178203240059 1267,295 C 1328.722385861561,305.3821796759941 1384.3611929307804,277.6910898379971 1440,250 C 1440,250 1440,500 1440,500 Z" stroke="none" stroke-width="0"></path></svg>